<?xml version="1.0" standalone="no"?>
<!DOCTYPE svg PUBLIC "-//W3C//DTD SVG 20010904//EN" "https://www.w3.org/TR/2001/REC-SVG-20010904/DTD/svg10.dtd">
<svg xmlns="https://www.w3.org/2000/svg" width="688" height="602" viewBox="0 0 600 525">
<title>Historical Germanic and modern neo-pagan Valknut symbol as topologically equivalent to the Triquetra (i.e. trefoil knot)</title>
<g transform="translate(0,525) scale(1,-1)">
<path d="M16.0771,121.205 L240,509.051 L300,405.128 L360,509.051
L583.923,121.205 H463.923 L523.923,17.2812 H76.0771 L136.077,121.205
H16.0771Z"/>
<path fill="rgb(179,179,179)" d="M291.962,151.205 H531.962 L360,449.051
L317.32,375.128 L351.962,315.128 L360,329.051 L428.038,211.205 H326.603
L291.962,151.205Z
M128.038,47.2812 H471.962 L429.282,121.205 H360 L368.038,107.281 H231.962
L282.68,195.128 L248.038,255.128 L128.038,47.2812Z
M68.0381,151.205 H153.398 L188.039,211.205 H171.962 L240,329.051
L290.718,241.205 H360 L240,449.051 L68.0381,151.205Z"/></g></svg>
